<?xml version="1.0" encoding="UTF-8"?> <svg xmlns="http://www.w3.org/2000/svg" xmlns:xlink="http://www.w3.org/1999/xlink" id="ey2bPRi1AxW1" viewBox="0 0 100 100" shape-rendering="geometricPrecision" text-rendering="geometricPrecision"><path d="M10,0v0h24.5q4.1,0,7,2.9q2.9,3,2.9,7.1v0v24.5q0,4.1-2.9,7t-7,2.9v0h-24.5q-4.1,0-7.1-2.9Q0,38.6,0,34.5v0L0,10Q0,5.9,2.9,2.9Q5.9,0,10,0Zm0,55.6v0h24.5q4.1,0,7,2.9t2.9,7v0v24.5q0,4.1-2.9,7.1-2.9,2.9-7,2.9v0h-24.5q-4.1,0-7.1-2.9Q0,94.1,0,90v0-24.5q0-4.1,2.9-7q3-2.9,7.1-2.9ZM65.5,0v0L90,0q4.1,0,7.1,2.9q2.9,3,2.9,7.1v0v24.5q0,4.1-2.9,7-3,2.9-7.1,2.9v0h-24.5q-4.1,0-7-2.9t-2.9-7v0-24.5q0-4.1,2.9-7.1Q61.4,0,65.5,0Zm0,55.6v0h24.5q4.1,0,7.1,2.9q2.9,2.9,2.9,7v0v24.5q0,4.1-2.9,7.1-3,2.9-7.1,2.9v0h-24.5q-4.1,0-7-2.9-2.9-3-2.9-7.1v0-24.5q0-4.1,2.9-7t7-2.9Z" fill="#091533"></path></svg> 