<?xml version="1.0" encoding="UTF-8"?> <svg xmlns="http://www.w3.org/2000/svg" xmlns:xlink="http://www.w3.org/1999/xlink" id="e7W0LxoGuUV1" viewBox="0 0 108.3 100" shape-rendering="geometricPrecision" text-rendering="geometricPrecision"><path d="M54.2,50v0q0,6.7-1.7,13v0q-1.6,6.2-4.6,11.8-3.1,5.5-7.4,10.1v0q-4.2,4.6-9.3,7.9v0q-5.7,3.9-12.6,6-7,2.1-14.5,2.1v0q-2.2,0-4.1-.2v0-101.4q1.9-.2,4.1-.2v0q7.5,0,14.5,2.1q6.9,2.1,12.6,6v0q5.1,3.3,9.3,7.9v0q4.3,4.6,7.4,10.1q3,5.6,4.6,11.8v0q1.7,6.3,1.7,13v0Zm54.1,0v0q0,10.5-3.9,19.8v0Q100.5,79.1,93.7,86q-6.9,7-16,10.9v0q-9.1,4-19.5,4v0q-2.1,0-4-.2v0-101.4q1.9-.2,4-.2v0q10.4,0,19.5,4v0Q86.8,7,93.7,14q6.8,6.9,10.7,16.2v0q3.9,9.3,3.9,19.8v0Z" fill="#0FACED"></path></svg> 