<?xml version="1.0" encoding="UTF-8"?> <svg xmlns="http://www.w3.org/2000/svg" xmlns:xlink="http://www.w3.org/1999/xlink" id="ed9IYCzulPS1" viewBox="0 0 112.5 100" shape-rendering="geometricPrecision" text-rendering="geometricPrecision"><path d="M108.2,42.3v0L62.3,2.3q-1.3-1-2.8-1.6-1.6-.6-3.2-.6v0q-1.7,0-3.3.5-1.5.6-2.7,1.7v0l-46,40q-1,.9-1.7,2-.7,1.2-1.1,2.6v0q-.3,1.3-.3,2.8.1,1.4.6,2.6v0q.4,1.3,1.3,2.4.8,1.2,2,1.9v0q1.2.8,2.5,1.3q1.3.4,2.7.4v0h5.6v32.5q0,1.9.7,3.5.7,1.7,2,3v0q1.2,1.2,2.9,1.9t3.5.7v0h13q1.8,0,3.5-.7t2.9-1.9v0q1.4-1.3,2.1-3q.7-1.6.7-3.5v0-13q0-.9.2-1.9.2-.9.5-1.8v0q.4-.9,1-1.6.5-.8,1.3-1.5v0q.7-.6,1.5-1.1t1.7-.8v0q1-.3,1.9-.3q1-.1,1.9,0v0q1.8.2,3.3,1.1q1.5.8,2.7,2.2v0q1.1,1.3,1.6,3q.6,1.7.5,3.4v0v12.3q0,1.9.8,3.5.7,1.7,2,3v0q1.2,1.2,2.9,1.9t3.5.7v0h13q1.9,0,3.5-.7q1.7-.7,2.9-1.9v0q1.3-1.3,2-3q.7-1.6.7-3.5v0-32.5h5.6q1.4,0,2.7-.4q1.4-.5,2.5-1.3v0q1.2-.7,2-1.9.9-1.1,1.3-2.4v0q.5-1.2.6-2.6.1-1.5-.3-2.7v0q-.3-1.4-1-2.6t-1.8-2.1v0Z" fill="#0FACED"></path></svg> 