<?xml version="1.0" encoding="UTF-8"?> <svg xmlns="http://www.w3.org/2000/svg" xmlns:xlink="http://www.w3.org/1999/xlink" id="eK26ksDbYyX1" viewBox="0 0 100 100" shape-rendering="geometricPrecision" text-rendering="geometricPrecision"><path d="M65.6,17.2v0h-19.5q0,2.5.4,5q.5,2.5,1.4,4.9v0q-2.8-2.4-5.3-4.7-2.6-2.3-5.9-5.2v0h-19.5q0,6.5,2.6,12.3v0q2.7,5.8,7.3,10.2q4.7,4.4,11,7.2v0q6.2,2.7,13.5,3.1v0q-7.3.4-13.5,3.1v0q-6.3,2.8-11,7.2-4.6,4.4-7.3,10.2v0q-2.6,5.8-2.6,12.3v0h19.5q3.3-2.9,5.9-5.2q2.5-2.3,5.3-4.7v0q-.9,2.4-1.4,4.9-.4,2.5-.4,5v0h19.5q5.1-4.5,8.7-7.7q3.5-3.1,8.5-7.6v0-35q-5-4.5-8.5-7.6-3.6-3.2-8.7-7.7ZM53.9,62.6v0-25.2q4.7,5.4,11.6,8.7q7,3.4,15,3.9v0q-8,.5-15,3.9-6.9,3.3-11.6,8.7v0Z" fill="#1e8a8a"></path></svg> 